<svg width="29" height="26" viewBox="0 0 29 26" fill="none" xmlns="http://www.w3.org/2000/svg">
<path d="M23.1996 7.7037H1.44997C1.06542 7.7037 0.69661 7.85589 0.424687 8.12677C0.152765 8.39766 0 8.76506 0 9.14815V14.9259C0.00454522 17.9619 1.15783 20.8847 3.22981 23.1111H1.44997C1.06542 23.1111 0.69661 23.2633 0.424687 23.5342C0.152765 23.8051 0 24.1725 0 24.5556C0 24.9386 0.152765 25.306 0.424687 25.5769C0.69661 25.8478 1.06542 26 1.44997 26H22.7162C23.1008 26 23.4696 25.8478 23.7415 25.5769C24.0134 25.306 24.1662 24.9386 24.1662 24.5556C24.1662 24.1725 24.0134 23.8051 23.7415 23.5342C23.4696 23.2633 23.1008 23.1111 22.7162 23.1111H20.9364C21.9783 21.9902 22.7982 20.6834 23.353 19.2593C24.7363 19.2195 26.0495 18.6439 27.0136 17.655C27.9777 16.666 28.5167 15.3415 28.5161 13.963V13C28.5145 11.5958 27.9539 10.2496 26.9572 9.25671C25.9605 8.26381 24.6091 7.7053 23.1996 7.7037ZM21.2663 14.9259C21.2632 16.6244 20.7872 18.2887 19.8913 19.7338C18.9953 21.1788 17.7145 22.348 16.1914 23.1111H7.97485C6.45168 22.348 5.17089 21.1788 4.27494 19.7338C3.37899 18.2887 2.90301 16.6244 2.89995 14.9259V10.5926H21.2663V14.9259ZM25.6162 13.963C25.6157 14.4437 25.4708 14.9132 25.2001 15.3112C24.9294 15.7091 24.5454 16.0173 24.0973 16.1958C24.1434 15.7741 24.1664 15.3502 24.1662 14.9259V10.7948C24.597 10.9821 24.9636 11.2905 25.2211 11.6821C25.4786 12.0738 25.6159 12.5318 25.6162 13V13.963ZM5.79989 4.33333V1.44444C5.79989 1.06135 5.95265 0.693954 6.22458 0.423068C6.4965 0.152182 6.86531 0 7.24986 0C7.63442 0 8.00323 0.152182 8.27515 0.423068C8.54707 0.693954 8.69984 1.06135 8.69984 1.44444V4.33333C8.69984 4.71642 8.54707 5.08382 8.27515 5.35471C8.00323 5.6256 7.63442 5.77778 7.24986 5.77778C6.86531 5.77778 6.4965 5.6256 6.22458 5.35471C5.95265 5.08382 5.79989 4.71642 5.79989 4.33333ZM10.6331 4.33333V1.44444C10.6331 1.06135 10.7859 0.693954 11.0578 0.423068C11.3297 0.152182 11.6985 0 12.0831 0C12.4677 0 12.8365 0.152182 13.1084 0.423068C13.3803 0.693954 13.5331 1.06135 13.5331 1.44444V4.33333C13.5331 4.71642 13.3803 5.08382 13.1084 5.35471C12.8365 5.6256 12.4677 5.77778 12.0831 5.77778C11.6985 5.77778 11.3297 5.6256 11.0578 5.35471C10.7859 5.08382 10.6331 4.71642 10.6331 4.33333ZM15.4664 4.33333V1.44444C15.4664 1.06135 15.6191 0.693954 15.8911 0.423068C16.163 0.152182 16.5318 0 16.9163 0C17.3009 0 17.6697 0.152182 17.9416 0.423068C18.2136 0.693954 18.3663 1.06135 18.3663 1.44444V4.33333C18.3663 4.71642 18.2136 5.08382 17.9416 5.35471C17.6697 5.6256 17.3009 5.77778 16.9163 5.77778C16.5318 5.77778 16.163 5.6256 15.8911 5.35471C15.6191 5.08382 15.4664 4.71642 15.4664 4.33333Z" fill="#2C2B2B"/>
</svg>
